<svg xmlns="http://www.w3.org/2000/svg" viewBox="0 0 32 32" width="32" height="32">
  <g shape-rendering="crispEdges">
    <!-- Diamond gem shape -->
    <rect x="12" y="2" width="8" height="4" fill="#00eeee"/>
    <rect x="8" y="6" width="4" height="4" fill="#00cccc"/>
    <rect x="12" y="6" width="8" height="4" fill="#00ffff"/>
    <rect x="20" y="6" width="4" height="4" fill="#00cccc"/>
    <rect x="4" y="10" width="4" height="4" fill="#00aaaa"/>
    <rect x="8" y="10" width="4" height="4" fill="#00dddd"/>
    <rect x="12" y="10" width="8" height="4" fill="#00ffff"/>
    <rect x="20" y="10" width="4" height="4" fill="#00dddd"/>
    <rect x="24" y="10" width="4" height="4" fill="#00aaaa"/>
    <rect x="8" y="14" width="4" height="4" fill="#00bbbb"/>
    <rect x="12" y="14" width="8" height="4" fill="#00eeee"/>
    <rect x="20" y="14" width="4" height="4" fill="#00bbbb"/>
    <rect x="12" y="18" width="8" height="4" fill="#00cccc"/>
    <rect x="14" y="22" width="4" height="4" fill="#00aaaa"/>
    <rect x="15" y="26" width="2" height="2" fill="#009999"/>
  </g>
</svg>
